<svg width="28" height="23" viewBox="0 0 28 23" fill="none" xmlns="http://www.w3.org/2000/svg">
<g clip-path="url(#clip0_29_56)">
<path d="M3.0888 2.91915C3.03598 1.40045 4.21794 0 5.81558 0H22.1864C23.7841 0 24.966 1.40045 24.9132 2.91915C24.8625 4.37801 24.9284 6.2678 25.4034 7.80867C25.88 9.35431 26.6837 10.3313 28 10.4568V11.8803C26.6837 12.0058 25.88 12.9828 25.4034 14.5284C24.9284 16.0693 24.8625 17.9591 24.9132 19.418C24.966 20.9366 23.7841 22.3371 22.1864 22.3371H5.81558C4.21794 22.3371 3.03598 20.9366 3.08886 19.418C3.13955 17.9591 3.07366 16.0693 2.59853 14.5284C2.12198 12.9828 1.31633 12.0058 0 11.8803V10.4568C1.31627 10.3313 2.12198 9.35431 2.59853 7.80867C3.07366 6.2678 3.13955 4.37801 3.0888 2.91915Z" fill="#454040"/>
<g filter="url(#filter0_d_29_56)">
<path d="M14.6072 17.1063C17.1937 17.1063 18.7524 15.8385 18.7524 13.7473C18.7524 12.1666 17.6403 11.0222 15.9889 10.841V10.7751C17.2022 10.5776 18.1542 9.44964 18.1542 8.19001C18.1542 6.39521 16.7388 5.22607 14.5819 5.22607H9.72894V17.1063H14.6072ZM11.6162 6.73273H14.127C15.4919 6.73273 16.2669 7.34196 16.2669 8.44519C16.2669 9.62254 15.3655 10.2812 13.731 10.2812H11.6162V6.73273ZM11.6162 15.5997V11.689H14.1101C15.8962 11.689 16.823 12.3477 16.823 13.632C16.823 14.9164 15.9215 15.5997 14.2196 15.5997H11.6162Z" fill="white"/>
<path d="M14.6072 17.1063C17.1937 17.1063 18.7524 15.8385 18.7524 13.7473C18.7524 12.1666 17.6403 11.0222 15.9889 10.841V10.7751C17.2022 10.5776 18.1542 9.44964 18.1542 8.19001C18.1542 6.39521 16.7388 5.22607 14.5819 5.22607H9.72894V17.1063H14.6072ZM11.6162 6.73273H14.127C15.4919 6.73273 16.2669 7.34196 16.2669 8.44519C16.2669 9.62254 15.3655 10.2812 13.731 10.2812H11.6162V6.73273ZM11.6162 15.5997V11.689H14.1101C15.8962 11.689 16.823 12.3477 16.823 13.632C16.823 14.9164 15.9215 15.5997 14.2196 15.5997H11.6162Z" stroke="white"/>
</g>
</g>
<defs>
<filter id="filter0_d_29_56" x="-6.77106" y="-7.27393" width="42.0234" height="44.8802" filterUnits="userSpaceOnUse" color-interpolation-filters="sRGB">
<feFlood flood-opacity="0" result="BackgroundImageFix"/>
<feColorMatrix in="SourceAlpha" type="matrix" values="0 0 0 0 0 0 0 0 0 0 0 0 0 0 0 0 0 0 127 0" result="hardAlpha"/>
<feOffset dy="4"/>
<feGaussianBlur stdDeviation="8"/>
<feColorMatrix type="matrix" values="0 0 0 0 0 0 0 0 0 0 0 0 0 0 0 0 0 0 0.15 0"/>
<feBlend mode="normal" in2="BackgroundImageFix" result="effect1_dropShadow_29_56"/>
<feBlend mode="normal" in="SourceGraphic" in2="effect1_dropShadow_29_56" result="shape"/>
</filter>
<clipPath id="clip0_29_56">
<rect width="28" height="22.3371" fill="white"/>
</clipPath>
</defs>
</svg>
