<svg width="28" height="28" viewBox="0 0 28 28" fill="none" xmlns="http://www.w3.org/2000/svg">
<path d="M27.472 12.753L15.247 0.528016C15.0798 0.360208 14.8811 0.227061 14.6623 0.136212C14.4435 0.0453618 14.2089 -0.00140381 13.972 -0.00140381C13.7351 -0.00140381 13.5005 0.0453618 13.2817 0.136212C13.0629 0.227061 12.8642 0.360208 12.697 0.528016L10.158 3.06702L13.378 6.28702C13.7577 6.1578 14.1661 6.13784 14.5566 6.22941C14.9471 6.32099 15.304 6.52041 15.5867 6.80496C15.8694 7.08952 16.0664 7.44775 16.1554 7.83885C16.2444 8.22994 16.2217 8.63817 16.09 9.01702L19.19 12.117C19.6534 11.9578 20.1573 11.9622 20.6178 12.1295C21.0784 12.2968 21.4677 12.6168 21.7209 13.0362C21.9741 13.4557 22.0759 13.9492 22.0094 14.4347C21.9429 14.9201 21.7121 15.368 21.3554 15.7039C20.9987 16.0398 20.5376 16.2433 20.0491 16.2806C19.5606 16.3178 19.074 16.1865 18.6705 15.9085C18.267 15.6306 17.971 15.2228 17.8317 14.753C17.6924 14.2833 17.7183 13.78 17.905 13.327L15.01 10.432V18.049C15.4485 18.2663 15.7994 18.6273 16.0041 19.0718C16.2089 19.5163 16.2551 20.0176 16.1352 20.4921C16.0153 20.9666 15.7364 21.3857 15.345 21.6796C14.9536 21.9734 14.4734 22.1243 13.9843 22.1071C13.4952 22.0899 13.0267 21.9057 12.6569 21.5851C12.2871 21.2645 12.0384 20.8268 11.952 20.3451C11.8657 19.8633 11.9471 19.3666 12.1825 18.9375C12.4179 18.5084 12.7933 18.173 13.246 17.987V10.3C12.9841 10.1926 12.746 10.0343 12.5455 9.83448C12.345 9.63462 12.1861 9.39707 12.0778 9.1355C11.9695 8.87394 11.914 8.59353 11.9146 8.31044C11.9151 8.02734 11.9717 7.74716 12.081 7.48602L8.911 4.31402L0.527999 12.7C0.360041 12.8673 0.226767 13.066 0.135829 13.2849C0.0448903 13.5038 -0.00192261 13.7385 -0.00192261 13.9755C-0.00192261 14.2125 0.0448903 14.4472 0.135829 14.6661C0.226767 14.885 0.360041 15.0838 0.527999 15.251L12.753 27.472C12.9202 27.6398 13.1189 27.773 13.3377 27.8638C13.5565 27.9547 13.7911 28.0014 14.028 28.0014C14.2649 28.0014 14.4995 27.9547 14.7183 27.8638C14.9371 27.773 15.1358 27.6398 15.303 27.472L27.472 15.3C27.64 15.1328 27.7732 14.934 27.8642 14.7151C27.9551 14.4962 28.0019 14.2615 28.0019 14.0245C28.0019 13.7875 27.9551 13.5528 27.8642 13.3339C27.7732 13.115 27.64 12.9163 27.472 12.749" fill="#454040"/>
</svg>
