<svg width="58" height="64" viewBox="0 0 58 64" fill="none" xmlns="http://www.w3.org/2000/svg">
<path d="M26.253 0.679831C27.83 -0.224567 29.884 -0.228652 31.4597 0.679831C39.3865 5.16755 47.3158 9.64823 55.2413 14.1387C56.7319 14.98 57.7291 16.6422 57.7139 18.3631V45.363C57.725 47.1552 56.6293 48.8571 55.0567 49.6793C47.1559 54.1423 39.2592 58.6107 31.3598 63.0737C29.7502 63.9958 27.6549 63.9248 26.0956 62.9271C23.727 61.5513 21.3542 60.1824 18.9854 58.8079C18.5013 58.5188 17.9556 58.2887 17.6138 57.8184C17.916 57.4104 18.4562 57.3595 18.8952 57.1814C19.884 56.8664 20.792 56.3607 21.7004 55.8701C21.93 55.7126 22.2105 55.7729 22.4306 55.9139C24.4561 57.0774 26.4637 58.2748 28.496 59.4273C28.9295 59.6781 29.3685 59.3451 29.7391 59.1382C37.4922 54.7478 45.2548 50.374 53.0065 45.9823C53.2937 45.8439 53.4525 45.5384 53.4292 45.2231C53.4346 36.3165 53.4305 27.4082 53.4319 18.5016C53.4647 18.1439 53.2581 17.815 52.9354 17.6687C45.062 13.2261 37.1927 8.77674 29.3207 4.33305C29.1843 4.2391 29.0228 4.1887 28.8572 4.18846C28.6917 4.18821 28.53 4.23814 28.3934 4.33169C20.5214 8.77674 12.6534 13.2302 4.78143 17.6725C4.45978 17.8191 4.24391 18.1425 4.2822 18.5016C4.28355 27.4082 4.2822 36.3165 4.2822 45.2245C4.26855 45.3783 4.30226 45.5326 4.3788 45.6667C4.45535 45.8007 4.57104 45.908 4.71031 45.9741C6.81099 47.1677 8.91439 48.3528 11.0164 49.5422C12.2006 50.1809 13.6546 50.5603 14.9593 50.071C16.1107 49.6573 16.9178 48.4801 16.8958 47.2553C16.9067 38.4006 16.8904 29.5445 16.9039 20.6912C16.8752 20.2981 17.2473 19.9733 17.6288 20.0103C18.6381 20.0035 19.6488 19.9967 20.6582 20.0131C21.0795 20.0035 21.3694 20.4268 21.3173 20.8228C21.3132 29.7336 21.3282 38.6445 21.3105 47.5553C21.3132 49.9301 20.3395 52.5142 18.1471 53.6761C15.4461 55.078 12.1078 54.7807 9.43944 53.4365C7.12946 52.2813 4.92504 50.918 2.65606 49.6805C1.0793 48.8628 -0.0109042 47.154 0.00019496 45.3632V18.3631C-0.0163405 16.6065 1.02041 14.9142 2.55753 14.0851C10.4569 9.6185 18.355 5.14848 26.253 0.679831Z" fill="#6464FA"/>
<path d="M33.1445 19.3828C36.5898 19.1606 40.2781 19.2512 43.3783 20.9517C45.7787 22.2549 47.1095 24.9898 47.1518 27.6617C47.0848 28.0221 46.7088 28.2209 46.3654 28.1962C45.3658 28.1948 44.3659 28.2098 43.3663 28.1894C42.9423 28.2057 42.6959 27.814 42.6426 27.4384C42.3554 26.16 41.6596 24.8938 40.4586 24.2772C38.615 23.3524 36.4774 23.3989 34.4671 23.4182C32.9995 23.4963 31.4214 23.6236 30.1781 24.4883C29.2236 25.1433 28.9336 26.4655 29.2743 27.5303C29.5955 28.2949 30.4764 28.5416 31.1972 28.769C35.3491 29.857 39.7489 29.7488 43.8216 31.1806C45.5078 31.7643 47.1573 32.8991 47.7344 34.6679C48.4894 37.0386 48.1585 39.8723 46.475 41.7755C45.1098 43.3417 43.1215 44.1942 41.1384 44.6571C38.5002 45.2465 35.7623 45.2615 33.0831 44.9998C30.5638 44.7121 27.9422 44.0489 25.9973 42.3291C24.3343 40.8823 23.522 38.628 23.6026 36.4522C23.6219 36.0848 23.987 35.8285 24.3383 35.8587C25.345 35.8506 26.3516 35.8478 27.3582 35.8601C27.7603 35.8313 28.0584 36.1794 28.079 36.5591C28.2647 37.7771 28.7216 39.0555 29.7817 39.7777C31.8275 41.1001 34.3946 41.0096 36.7372 41.0466C38.678 40.9603 40.8566 40.9342 42.4404 39.649C43.276 38.916 43.5235 37.6895 43.2977 36.6344C43.0531 35.7437 42.123 35.3286 41.3243 35.0571C37.2256 33.7581 32.7766 34.2294 28.7175 32.7604C27.0696 32.1769 25.4761 31.0737 24.843 29.3775C23.9596 26.9768 24.3644 24.0074 26.2243 22.1684C28.0378 20.3392 30.6556 19.6349 33.1445 19.3828Z" fill="#6464FA"/>
</svg>
