<svg width="55" height="54" viewBox="0 0 55 54" fill="none" xmlns="http://www.w3.org/2000/svg">
<path d="M5.95464 17.5718L17.2097 47.8379C9.33669 44.0927 3.91431 36.1669 3.91431 27C3.91431 23.6359 4.64617 20.4569 5.95464 17.5718ZM43.4234 25.8351C43.4234 22.9718 42.381 20.9903 41.4829 19.4444C40.2853 17.5391 39.1653 15.9169 39.1653 14.0117C39.1653 11.8778 40.8065 9.89637 43.124 9.89637C43.2238 9.89637 43.3236 9.90726 43.4345 9.91815C39.2319 6.14032 33.6431 3.83226 27.5 3.83226C19.2611 3.83226 12.0091 7.98024 7.78427 14.273C8.33871 14.2948 8.85988 14.3056 9.30343 14.3056C11.7651 14.3056 15.5907 14.0117 15.5907 14.0117C16.8659 13.9355 17.0101 15.7754 15.746 15.9169C15.746 15.9169 14.4708 16.0585 13.0514 16.1347L21.6452 41.2185L26.8125 26.0202L23.1421 16.1347C21.8669 16.0585 20.6694 15.9169 20.6694 15.9169C19.3942 15.8407 19.5494 13.9355 20.8135 14.0117C20.8135 14.0117 24.7056 14.3056 27.0232 14.3056C29.4849 14.3056 33.3105 14.0117 33.3105 14.0117C34.5857 13.9355 34.7298 15.7754 33.4657 15.9169C33.4657 15.9169 32.1905 16.0585 30.7712 16.1347L39.2984 41.0335L41.6492 33.3145C42.6472 30.1137 43.4234 27.8165 43.4234 25.8351ZM27.9103 29.025L20.8357 49.2206C22.9536 49.8302 25.1825 50.1677 27.5 50.1677C30.25 50.1677 32.878 49.6996 35.3286 48.8504C35.2621 48.7524 35.2067 48.6435 35.1623 48.5347L27.9103 29.025ZM48.2026 15.8843C48.3024 16.6246 48.3579 17.4085 48.3579 18.2685C48.3579 20.6202 47.9143 23.2548 46.5615 26.5645L39.3538 47.0214C46.373 43.004 51.0857 35.5464 51.0857 27C51.0857 22.9718 50.0433 19.1831 48.2026 15.8843ZM55 27C55 41.8935 42.6583 54 27.5 54C12.3306 54 0 41.8827 0 27C0 12.1065 12.3306 0 27.5 0C42.6583 0 55 12.1065 55 27ZM53.7359 27C53.7359 12.7923 41.9597 1.24113 27.5 1.24113C13.0292 1.24113 1.26411 12.7923 1.26411 27C1.26411 41.2077 13.0403 52.7589 27.5 52.7589C41.9708 52.7589 53.7359 41.2077 53.7359 27Z" fill="#00769D"/>
</svg>
