<svg width="55" height="49" viewBox="0 0 55 49" fill="none" xmlns="http://www.w3.org/2000/svg">
<g clip-path="url(#clip0_4_116)">
<path d="M45.221 15.8656C44.6505 15.6692 44.0593 15.4833 43.4505 15.3075C43.5506 14.899 43.6424 14.4959 43.7241 14.0995C45.0643 7.59175 44.188 2.34904 41.1957 0.622922C38.3265 -1.0322 33.6341 0.69353 28.895 4.81915C28.4392 5.21586 27.9823 5.63589 27.5255 6.07608C27.2211 5.78484 26.9172 5.50339 26.6141 5.23417C21.6474 0.822798 16.669 -1.03622 13.6797 0.694901C10.8132 2.35482 9.96428 7.28347 11.1707 13.4509C11.2872 14.0466 11.4234 14.655 11.5774 15.2735C10.8728 15.4736 10.1926 15.6869 9.54175 15.9138C3.7188 17.9446 0 21.1273 0 24.4286C0 27.8383 3.99214 31.2582 10.0572 33.3319C10.5358 33.4955 11.0325 33.6503 11.5443 33.7972C11.3781 34.4661 11.2336 35.1217 11.1123 35.7611C9.96203 41.8215 10.8604 46.6337 13.7192 48.2831C16.6721 49.9865 21.628 48.2356 26.4538 44.016C26.8352 43.6825 27.218 43.3287 27.6014 42.958C28.0985 43.4368 28.5947 43.8899 29.0883 44.3149C33.7626 48.3386 38.3793 49.9633 41.2355 48.3093C44.1855 46.601 45.1442 41.4315 43.8995 35.142C43.8044 34.6617 43.6938 34.171 43.5696 33.6715C43.9176 33.5686 44.2593 33.4623 44.5924 33.3519C50.8976 31.2621 55 27.8838 55 24.4286C55 21.1154 51.1613 17.9112 45.221 15.8656ZM43.8535 31.1209C43.5527 31.2205 43.2442 31.3168 42.9297 31.4101C42.2336 29.2058 41.2942 26.8618 40.1446 24.4401C41.2416 22.0761 42.1448 19.7621 42.8213 17.572C43.384 17.7349 43.93 17.9067 44.4562 18.0879C49.5458 19.8406 52.6504 22.4319 52.6504 24.4286C52.6504 26.5555 49.2976 29.3165 43.8535 31.1209ZM41.5946 35.5985C42.1449 38.3796 42.2236 40.8941 41.859 42.8598C41.5314 44.626 40.8726 45.8036 40.0581 46.2753C38.3248 47.2789 34.6182 45.9743 30.6206 42.5333C30.1624 42.1388 29.7008 41.7176 29.2377 41.2718C30.7875 39.5763 32.3363 37.6053 33.848 35.4162C36.5068 35.1802 39.0188 34.7944 41.2968 34.2676C41.409 34.7204 41.5087 35.1644 41.5946 35.5985ZM18.7507 46.1018C17.0573 46.7001 15.7085 46.7172 14.8932 46.247C13.1583 45.246 12.4371 41.3823 13.4209 36.1994C13.5336 35.6058 13.6677 34.9961 13.8223 34.3729C16.0754 34.8713 18.5689 35.2299 21.2342 35.446C22.756 37.5881 24.3496 39.5569 25.9555 41.2809C25.6047 41.6198 25.2552 41.9423 24.9076 42.2463C22.7737 44.1122 20.6353 45.436 18.7507 46.1018ZM10.8171 31.1079C8.13523 30.191 5.92046 28.9993 4.40233 27.6988C3.03821 26.5302 2.34948 25.3701 2.34948 24.4286C2.34948 22.4253 5.33531 19.87 10.3152 18.1332C10.9194 17.9224 11.5519 17.7238 12.2083 17.5373C12.8966 19.7768 13.7994 22.1182 14.8889 24.4858C13.7853 26.8887 12.8696 29.2674 12.1747 31.5331C11.7067 31.3986 11.2533 31.2569 10.8171 31.1079ZM13.4765 12.9996C12.4429 7.71544 13.1294 3.72928 14.8568 2.72901C16.6968 1.66343 20.7656 3.18273 25.054 6.99173C25.3281 7.23519 25.6033 7.49 25.8793 7.75363C24.2813 9.47006 22.7023 11.4242 21.1939 13.5536C18.6072 13.7934 16.1312 14.1787 13.8546 14.6946C13.7115 14.1186 13.5847 13.5528 13.4765 12.9996ZM37.201 18.8596C36.6568 17.9193 36.0981 17.0012 35.5285 16.1082C37.2834 16.3301 38.9647 16.6247 40.5436 16.9851C40.0696 18.5048 39.4788 20.0938 38.7833 21.7226C38.2844 20.7752 37.7567 19.8198 37.201 18.8596ZM27.5262 9.43334C28.61 10.6078 29.6953 11.9191 30.7628 13.3418C29.6871 13.291 28.598 13.2646 27.5 13.2646C26.4123 13.2646 25.3313 13.2904 24.2623 13.3404C25.3308 11.9309 26.4256 10.6213 27.5262 9.43334ZM17.7895 18.8759C17.2458 19.8189 16.7279 20.769 16.2369 21.7209C15.5527 20.0977 14.9673 18.5015 14.4892 16.9603C16.0584 16.609 17.7318 16.3218 19.4755 16.1041C18.8979 17.0053 18.3346 17.9304 17.7895 18.8759ZM19.5257 32.9209C17.7242 32.7198 16.0256 32.4474 14.4568 32.1058C14.9426 30.5371 15.5408 28.9068 16.2395 27.2487C16.7319 28.1999 17.2518 29.1504 17.7988 30.0954C18.3559 31.0581 18.9332 32.0012 19.5257 32.9209ZM27.5912 39.5897C26.4776 38.3878 25.3669 37.0583 24.2821 35.6282C25.3352 35.6695 26.4088 35.6907 27.5 35.6907C28.621 35.6907 29.7293 35.6654 30.8201 35.6168C29.749 37.0726 28.6676 38.4042 27.5912 39.5897ZM38.8057 27.1641C39.5408 28.8402 40.1605 30.4619 40.6526 32.004C39.0579 32.3679 37.3361 32.661 35.5221 32.8788C36.093 31.9737 36.6566 31.0398 37.2104 30.0792C37.7707 29.1074 38.3027 28.134 38.8057 27.1641ZM35.1752 28.905C34.3155 30.3962 33.4328 31.8198 32.5367 33.1635C30.9046 33.2802 29.2185 33.3403 27.5 33.3403C25.7884 33.3403 24.1236 33.2871 22.5204 33.183C21.5882 31.8217 20.6863 30.394 19.832 28.9179C18.98 27.4458 18.196 25.9613 17.4855 24.4851C18.1959 23.0054 18.978 21.5192 19.8251 20.0498L19.8249 20.0501C20.6743 18.5767 21.5682 17.1559 22.4918 15.8031C24.1275 15.6794 25.8048 15.6149 27.4999 15.6149C29.2027 15.6149 30.8822 15.6799 32.5174 15.8047C33.4269 17.1476 34.3148 18.5638 35.1675 20.0373C36.0299 21.5275 36.8221 23.0038 37.5385 24.4517C36.8242 25.9244 36.0338 27.4156 35.1752 28.905ZM40.0221 2.65909C41.8639 3.72154 42.5801 8.00639 41.4229 13.6252C41.3491 13.9837 41.266 14.3489 41.1757 14.7189C38.8939 14.1923 36.4161 13.8003 33.8218 13.5569C32.3106 11.4041 30.7445 9.44695 29.1725 7.75255C29.5951 7.34585 30.0172 6.95804 30.4375 6.59208C34.4979 3.05728 38.293 1.66167 40.0221 2.65909ZM27.5 19.5158C30.2124 19.5158 32.4113 21.7153 32.4113 24.4286C32.4113 27.1419 30.2124 29.3415 27.5 29.3415C24.7876 29.3415 22.5887 27.1419 22.5887 24.4286C22.5887 21.7153 24.7876 19.5158 27.5 19.5158Z" fill="#257BC2"/>
</g>
<defs>
<clipPath id="clip0_4_116">
<rect width="55" height="49" fill="white"/>
</clipPath>
</defs>
</svg>
