<svg width="57" height="35" viewBox="0 0 57 35" fill="none" xmlns="http://www.w3.org/2000/svg">
<path d="M28.5 0C20.9001 0 16.1499 3.88897 14.25 11.6667C17.1 7.7777 20.4249 6.31937 24.225 7.29167C26.393 7.84629 27.9427 9.45615 29.658 11.2378C32.4524 14.1406 35.6862 17.5 42.75 17.5C50.3499 17.5 55.1001 13.611 57 5.83333C54.15 9.7223 50.8251 11.1806 47.025 10.2083C44.857 9.65371 43.3073 8.04385 41.592 6.26217C38.7976 3.35941 35.5638 0 28.5 0ZM14.25 17.5C6.65007 17.5 1.89993 21.389 0 29.1667C2.85 25.2777 6.17493 23.8194 9.975 24.7917C12.143 25.3463 13.6927 26.9562 15.408 28.7378C18.2024 31.6406 21.4362 35 28.5 35C36.0999 35 40.8501 31.111 42.75 23.3333C39.9 27.2223 36.5751 28.6806 32.775 27.7083C30.607 27.1537 29.0573 25.5438 27.342 23.7622C24.5476 20.8594 21.3138 17.5 14.25 17.5Z" fill="url(#paint0_linear_4_120)"/>
<defs>
<linearGradient id="paint0_linear_4_120" x1="-405.366" y1="1720.32" x2="-228.66" y2="3657.86" gradientUnits="userSpaceOnUse">
<stop stop-color="#2298BD"/>
<stop offset="1" stop-color="#0ED7B5"/>
</linearGradient>
</defs>
</svg>
