<svg width="46" height="46" viewBox="0 0 46 46" fill="none" xmlns="http://www.w3.org/2000/svg">
<path d="M15.3393 46C17.3727 46 19.3227 45.1922 20.7605 43.7544C22.1983 42.3167 23.006 40.3666 23.006 38.3333V30.6666H15.3393C13.306 30.6666 11.356 31.4744 9.91818 32.9121C8.4804 34.3499 7.67267 36.3 7.67267 38.3333C7.67267 40.3666 8.4804 42.3167 9.91818 43.7544C11.356 45.1922 13.306 46 15.3393 46Z" fill="#0ACF83"/>
<path d="M7.67267 23C7.67267 20.9667 8.4804 19.0167 9.91818 17.5789C11.356 16.1411 13.306 15.3334 15.3393 15.3334H23.006V30.6667H15.3393C13.306 30.6667 11.356 29.859 9.91818 28.4212C8.4804 26.9834 7.67267 25.0334 7.67267 23Z" fill="#A259FF"/>
<path d="M7.67267 7.66667C7.67267 5.63438 8.47958 3.68524 9.91607 2.24763C11.3525 0.810024 13.3011 0.00158773 15.3333 0L23 0V15.3333H15.3393C13.306 15.3333 11.356 14.5256 9.91818 13.0878C8.4804 11.65 7.67267 9.69999 7.67267 7.66667Z" fill="#F24E1E"/>
<path d="M23.006 0H30.6726C32.706 0 34.656 0.807736 36.0938 2.24551C37.5316 3.68329 38.3393 5.63334 38.3393 7.66667C38.3393 9.69999 37.5316 11.65 36.0938 13.0878C34.656 14.5256 32.706 15.3333 30.6726 15.3333H23.006V0Z" fill="#FF7262"/>
<path d="M38.3393 23C38.3393 25.0334 37.5316 26.9834 36.0938 28.4212C34.656 29.859 32.706 30.6667 30.6726 30.6667C28.6393 30.6667 26.6893 29.859 25.2515 28.4212C23.8137 26.9834 23.006 25.0334 23.006 23C23.006 20.9667 23.8137 19.0167 25.2515 17.5789C26.6893 16.1411 28.6393 15.3334 30.6726 15.3334C32.706 15.3334 34.656 16.1411 36.0938 17.5789C37.5316 19.0167 38.3393 20.9667 38.3393 23Z" fill="#1ABCFE"/>
</svg>
