<svg width="44" height="44" viewBox="0 0 44 44" fill="none" xmlns="http://www.w3.org/2000/svg">
<path d="M44 0H0V44H44V0Z" fill="#F7DF1E"/>
<path d="M11.5724 36.7675L14.936 34.7299C15.5865 35.8875 16.1777 36.8517 17.588 36.8517C18.9501 36.8517 19.806 36.3215 19.806 34.2478V20.2039H23.9405V34.32C23.9405 38.5997 21.4328 40.5522 17.7685 40.5522C14.4659 40.5522 12.5495 38.8403 11.5724 36.7675Z" fill="black"/>
<path d="M26.1955 36.3215L29.5591 34.369C30.4511 35.8153 31.5966 36.8766 33.6334 36.8766C35.3452 36.8766 36.4418 36.0207 36.4418 34.839C36.4418 33.4168 35.3203 32.9226 33.428 32.0908L32.3916 31.6447C29.4138 30.3789 27.4252 28.7753 27.4252 25.4126C27.4252 22.3145 29.7877 19.9521 33.4769 19.9521C36.1049 19.9521 37.9973 20.8682 39.3594 23.2555L36.141 25.3172C35.4294 24.0513 34.6706 23.5451 33.489 23.5451C32.2833 23.5451 31.5124 24.3169 31.5124 25.3172C31.5124 26.559 32.2841 27.0651 34.0562 27.8248L35.0926 28.2708C38.6126 29.7773 40.5891 31.3087 40.5891 34.7686C40.5891 38.4931 37.6595 40.5307 33.7416 40.5307C29.8839 40.5522 27.4003 38.72 26.1955 36.3215Z" fill="black"/>
</svg>
