<svg width="49" height="30" viewBox="0 0 49 30" fill="none" xmlns="http://www.w3.org/2000/svg">
<path d="M24.5 0C17.9667 0 13.8833 3.3334 12.25 10C14.7 6.6666 17.5583 5.4166 20.825 6.25C22.6887 6.72539 24.0209 8.10527 25.4955 9.63242C27.8977 12.1205 30.6776 15 36.75 15C43.2833 15 47.3667 11.6666 49 5C46.55 8.3334 43.6917 9.5834 40.425 8.75C38.5613 8.27461 37.2291 6.89473 35.7545 5.36758C33.3523 2.87949 30.5724 0 24.5 0ZM12.25 15C5.71673 15 1.63327 18.3334 0 25C2.45 21.6666 5.30827 20.4166 8.575 21.25C10.4387 21.7254 11.7709 23.1053 13.2455 24.6324C15.6477 27.1205 18.4276 30 24.5 30C31.0333 30 35.1167 26.6666 36.75 20C34.3 23.3334 31.4417 24.5834 28.175 23.75C26.3113 23.2746 24.9791 21.8947 23.5045 20.3676C21.1023 17.8795 18.3224 15 12.25 15Z" fill="url(#paint0_linear_14_7)"/>
<defs>
<linearGradient id="paint0_linear_14_7" x1="-348.472" y1="1474.56" x2="-197.444" y2="3135.39" gradientUnits="userSpaceOnUse">
<stop stop-color="#2298BD"/>
<stop offset="1" stop-color="#0ED7B5"/>
</linearGradient>
</defs>
</svg>
