<svg width="54" height="43" viewBox="0 0 54 43" fill="none" xmlns="http://www.w3.org/2000/svg">
<path d="M31.1762 16.2121C31.1762 14.0971 29.6866 12.9295 27.0703 12.9295H22.2578V19.7436H26.316C29.4479 19.734 31.1762 18.4707 31.1762 16.2121ZM48.6979 14.9871C47.7908 12.0299 47.6571 8.40273 47.7622 5.59863C47.8672 2.67969 45.5946 0 42.5391 0H11.1432C8.07812 0 5.8151 2.68926 5.92014 5.59863C6.01562 8.40273 5.89149 12.0299 4.98437 14.9871C4.06771 17.9539 2.53038 19.8297 0 20.0689V22.7965C2.52083 23.0357 4.06771 24.9115 4.98437 27.8783C5.89149 30.8355 6.02517 34.4627 5.92014 37.2668C5.8151 40.1857 8.08767 42.8654 11.1432 42.8654H42.5295C45.5946 42.8654 47.8576 40.1762 47.7526 37.2668C47.6571 34.4627 47.7812 30.8355 48.6884 27.8783C49.605 24.9115 51.1424 23.0357 53.6632 22.7965V20.0689C51.1519 19.8297 49.605 17.9539 48.6979 14.9871ZM27.9965 32.8357H18.6484V10.0297H27.9488C32.0833 10.0297 34.7951 12.2691 34.7951 15.7145C34.7951 18.1357 32.9714 20.2986 30.6415 20.6719V20.7963C33.8116 21.1408 35.941 23.342 35.941 26.3758C35.941 30.4049 32.9523 32.8357 27.9965 32.8357ZM27.0417 22.4328H22.2578V29.9359H27.2517C30.5174 29.9359 32.2457 28.6248 32.2457 26.1557C32.2457 23.6961 30.4696 22.4328 27.0417 22.4328Z" fill="#7952B3"/>
</svg>
