<svg width="80" height="80" viewBox="0 0 62 62" fill="none" xmlns="http://www.w3.org/2000/svg">
<path d="M57.102 28.5839L33.4161 4.898C33.0921 4.57288 32.7071 4.3149 32.2832 4.13888C31.8592 3.96286 31.4048 3.87225 30.9458 3.87225C30.4867 3.87225 30.0323 3.96286 29.6083 4.13888C29.1844 4.3149 28.7994 4.57288 28.4754 4.898L23.5561 9.81732L29.7949 16.0561C30.5306 15.8057 31.3218 15.767 32.0784 15.9445C32.835 16.1219 33.5265 16.5083 34.0742 17.0596C34.6219 17.6109 35.0037 18.305 35.1761 19.0627C35.3485 19.8205 35.3046 20.6114 35.0494 21.3454L41.0556 27.3517C41.9534 27.0433 42.9298 27.0518 43.822 27.3759C44.7143 27.6999 45.4686 28.32 45.9592 29.1327C46.4498 29.9453 46.6471 30.9016 46.5183 31.8421C46.3894 32.7826 45.9422 33.6506 45.251 34.3013C44.5599 34.9521 43.6667 35.3464 42.7201 35.4186C41.7736 35.4907 40.8309 35.2363 40.0491 34.6978C39.2674 34.1592 38.6938 33.3691 38.4239 32.459C38.154 31.5488 38.2041 30.5737 38.5659 29.6961L32.9569 24.087V38.8449C33.8066 39.2659 34.4863 39.9653 34.883 40.8266C35.2797 41.6879 35.3693 42.6591 35.137 43.5784C34.9046 44.4978 34.3643 45.3097 33.606 45.8791C32.8477 46.4485 31.9172 46.7408 30.9695 46.7075C30.0219 46.6742 29.1142 46.3173 28.3978 45.6961C27.6813 45.0749 27.1993 44.227 27.0321 43.2936C26.8648 42.3602 27.0224 41.3977 27.4786 40.5664C27.9348 39.735 28.662 39.0851 29.5391 38.7248V23.8313C29.0317 23.6231 28.5704 23.3165 28.182 22.9293C27.7935 22.5421 27.4855 22.0818 27.2757 21.575C27.0659 21.0682 26.9584 20.5249 26.9595 19.9764C26.9606 19.428 27.0702 18.8851 27.2819 18.3791L21.1401 12.2334L4.898 28.4813C4.57258 28.8053 4.31436 29.1904 4.13817 29.6145C3.96198 30.0386 3.87128 30.4933 3.87128 30.9525C3.87128 31.4118 3.96198 31.8665 4.13817 32.2906C4.31436 32.7147 4.57258 33.0998 4.898 33.4238L28.5839 57.102C28.9079 57.4271 29.2929 57.6851 29.7168 57.8611C30.1408 58.0371 30.5952 58.1278 31.0542 58.1278C31.5133 58.1278 31.9677 58.0371 32.3917 57.8611C32.8156 57.6851 33.2006 57.4271 33.5246 57.102L57.102 33.5188C57.4274 33.1947 57.6856 32.8096 57.8618 32.3855C58.038 31.9614 58.1287 31.5067 58.1287 31.0475C58.1287 30.5882 58.038 30.1335 57.8618 29.7094C57.6856 29.2853 57.4274 28.9002 57.102 28.5762" fill="#F03C2E"/>
<path d="M23.5561 9.81732L29.7949 16.0561C30.5306 15.8057 31.3218 15.767 32.0784 15.9445C32.835 16.1219 33.5265 16.5083 34.0742 17.0596C34.6219 17.6109 35.0037 18.305 35.1761 19.0627C35.3485 19.8205 35.3046 20.6114 35.0494 21.3454L41.0556 27.3517C41.9534 27.0433 42.9298 27.0518 43.8221 27.3759C44.7143 27.6999 45.4686 28.32 45.9592 29.1327C46.4498 29.9453 46.6471 30.9016 46.5183 31.8421C46.3894 32.7826 45.9422 33.6506 45.251 34.3013C44.5599 34.9521 43.6667 35.3464 42.7201 35.4186C41.7736 35.4907 40.8309 35.2363 40.0492 34.6978C39.2674 34.1592 38.6938 33.3691 38.4239 32.459C38.154 31.5488 38.2042 30.5737 38.566 29.6961L32.9569 24.087V38.8449C33.8066 39.2659 34.4864 39.9653 34.883 40.8266C35.2797 41.6879 35.3693 42.6591 35.137 43.5784C34.9046 44.4978 34.3643 45.3098 33.606 45.8791C32.8477 46.4485 31.9172 46.7409 30.9696 46.7075C30.0219 46.6742 29.1142 46.3173 28.3978 45.6961C27.6813 45.0749 27.1994 44.227 27.0321 43.2936C26.8649 42.3602 27.0224 41.3977 27.4786 40.5664C27.9348 39.735 28.662 39.0851 29.5391 38.7248V23.8313C29.0317 23.6231 28.5705 23.3165 28.182 22.9293C27.7935 22.5421 27.4855 22.0818 27.2757 21.575C27.0659 21.0682 26.9584 20.5249 26.9595 19.9765C26.9606 19.428 27.0702 18.8851 27.282 18.3791L21.1401 12.2334" fill="white"/>
</svg>
