<svg width="57" height="64" viewBox="0 0 57 64" fill="none" xmlns="http://www.w3.org/2000/svg">
<path d="M56.432 0L51.2909 57.5933L28.1815 64L5.13565 57.6023L0 0H56.432Z" fill="#264DE4"/>
<path d="M28.216 59.103L46.8896 53.926L51.283 4.70984H28.216V59.103Z" fill="#2965F1"/>
<path d="M28.216 26.0737H11.7734L12.4066 33.1383H28.216V26.0737Z" fill="#EBEBEB"/>
<path d="M28.216 11.7747H28.1916H10.5011L11.1433 18.8394H28.216V11.7747Z" fill="#EBEBEB"/>
<path d="M12.7222 36.6708L13.712 47.7634L28.1835 51.7808L28.216 51.7718V44.4215L28.185 44.4298L20.317 42.3053L19.8141 36.6708H15.9908H12.7222Z" fill="#EBEBEB"/>
<path d="M36.891 33.1384L36.0709 42.3008L28.1916 44.4274V51.7774L42.6746 47.7634L42.7809 46.5699L44.441 27.9708L44.6134 26.0738L45.8888 11.7747H28.1916V18.8394H38.1465L37.5036 26.0738H28.1916V33.1384H36.891Z" fill="white"/>
</svg>
