<svg width="54" height="54" viewBox="0 0 54 54" fill="none" xmlns="http://www.w3.org/2000/svg">
<path d="M0 0V54H54V0H0ZM31.0548 23.4383H23.375V47.2271L19.1456 47.2271V23.4383H11.4818V19.5045H31.0548V23.4383ZM46.7919 44.8019C44.214 48.1611 36.8191 48.6741 32.5194 45.8792V40.6209C34.8598 43.1769 37.2815 43.5422 39.1684 43.7155C45.0629 44.206 45.2337 39.2959 42.8477 37.2713C39.3344 34.4357 32.3378 32.8581 32.5563 26.731C32.5054 22.3416 35.9132 19.395 40.9846 19.1211C42.9062 19.0174 45.6455 19.1369 47.3683 20.2495V25.1925C43.3249 21.4827 34.9093 22.4776 36.9499 27.9842C38.7969 31.3841 45.1484 31.7183 47.8212 37.1023C48.9555 40.1312 48.3241 42.8055 46.7919 44.8019Z" fill="#6464FA"/>
</svg>
