<svg width="28" height="28" viewBox="0 0 28 28" fill="none" xmlns="http://www.w3.org/2000/svg">
<g clip-path="url(#clip0_24_43)">
<path d="M28 0H0V28H28V0Z" fill="#454040"/>
<path d="M7.3642 23.3975L9.50467 22.1009C9.91865 22.8375 10.2949 23.4511 11.1923 23.4511C12.0591 23.4511 12.6038 23.1137 12.6038 21.7941V12.8571H15.2348V21.84C15.2348 24.5635 13.639 25.806 11.3072 25.806C9.20552 25.806 7.98599 24.7166 7.3642 23.3975Z" fill="white"/>
<path d="M16.6699 23.1137L18.8103 21.8712C19.378 22.7915 20.107 23.4669 21.4031 23.4669C22.4924 23.4669 23.1903 22.9222 23.1903 22.1703C23.1903 21.2652 22.4766 20.9508 21.2724 20.4214L20.6128 20.1376C18.7179 19.332 17.4524 18.3115 17.4524 16.1716C17.4524 14.2001 18.9558 12.6968 21.3035 12.6968C22.9759 12.6968 24.1801 13.2797 25.0469 14.799L22.9988 16.1109C22.546 15.3054 22.0631 14.9833 21.3112 14.9833C20.5439 14.9833 20.0534 15.4744 20.0534 16.1109C20.0534 16.9012 20.5445 17.2233 21.6721 17.7067L22.3317 17.9905C24.5717 18.9492 25.8295 19.9237 25.8295 22.1254C25.8295 24.4956 23.9652 25.7922 21.472 25.7922C19.017 25.8059 17.4366 24.64 16.6699 23.1137Z" fill="white"/>
</g>
<defs>
<clipPath id="clip0_24_43">
<rect width="28" height="28" rx="3" fill="white"/>
</clipPath>
</defs>
</svg>
