<svg width="28" height="28" viewBox="0 0 28 28" fill="none" xmlns="http://www.w3.org/2000/svg">
<path d="M14 16.1647C15.2081 16.1647 16.1875 15.1854 16.1875 13.9772C16.1875 12.7691 15.2081 11.7897 14 11.7897C12.7919 11.7897 11.8125 12.7691 11.8125 13.9772C11.8125 15.1854 12.7919 16.1647 14 16.1647Z" fill="#454040"/>
<path d="M14 18.9927C11.3707 19.0563 8.74807 18.7019 6.23 17.9427C5.06679 17.574 3.98189 16.9931 3.03013 16.2295C2.66694 15.9686 2.36449 15.6323 2.14352 15.2435C1.92256 14.8547 1.78832 14.4228 1.75 13.9772C1.75 12.5309 3.339 11.1134 6.00075 10.1859C8.58614 9.36402 11.2874 8.96571 14 9.00637C16.6764 8.96897 19.3415 9.36008 21.8942 10.1649C23.0145 10.522 24.0626 11.0748 24.99 11.7976C25.347 12.0463 25.6449 12.3705 25.8626 12.7472C26.0804 13.1238 26.2126 13.5438 26.25 13.9772C26.25 15.4805 24.4738 17.0039 21.6125 17.9506C19.1432 18.6851 16.5759 19.0365 14 18.9927ZM14 10.0529C11.4048 10.0182 8.82072 10.3968 6.34462 11.1746C3.89462 12.0295 2.7965 13.1985 2.7965 13.9746C2.7965 14.7866 3.97688 16.0632 6.56862 16.9496C8.97756 17.6722 11.4858 18.0086 14 17.9462C16.4644 17.9903 18.9209 17.6569 21.2844 16.9575C23.975 16.0659 25.2 14.7875 25.2 13.9772C25.1559 13.6992 25.0545 13.4333 24.9024 13.1964C24.7503 12.9595 24.5507 12.7567 24.3163 12.6009C23.4865 11.9596 22.5502 11.4697 21.5504 11.1536C19.1083 10.3869 16.5594 10.0153 14 10.0529Z" fill="#454040"/>
<path d="M9.02999 24.8876C8.62181 24.897 8.21844 24.7979 7.86099 24.6006C6.60799 23.8779 6.17399 21.7936 6.69987 19.0242C7.27968 16.3739 8.28432 13.8349 9.67487 11.5054C10.9793 9.16832 12.6492 7.05503 14.6212 5.2456C15.4903 4.45347 16.4928 3.82158 17.5822 3.37923C17.9763 3.19455 18.4062 3.09882 18.8414 3.09882C19.2766 3.09882 19.7064 3.19455 20.1005 3.37923C21.4034 4.12998 21.8347 6.42948 21.2266 9.38085C20.6289 11.8873 19.6504 14.2874 18.3251 16.4972C17.0666 18.8067 15.4493 20.9016 13.5336 22.7036C12.6331 23.5268 11.5879 24.1762 10.451 24.619C9.99584 24.7879 9.51541 24.8787 9.02999 24.8876ZM10.5814 12.0251C9.25495 14.2558 8.29207 16.6833 7.72887 19.2167C7.24499 21.7674 7.70962 23.3012 8.38512 23.6915C9.08512 24.0966 10.7844 23.7125 12.8476 21.91C14.6764 20.1836 16.2201 18.1783 17.4212 15.9687C18.6908 13.8561 19.6295 11.5615 20.2046 9.16473C20.7769 6.3866 20.2825 4.6856 19.5807 4.28135C19.3177 4.18057 19.0367 4.13546 18.7553 4.14887C18.474 4.16227 18.1985 4.2339 17.9462 4.35923C16.9765 4.7594 16.0849 5.32753 15.3125 6.03748C13.4283 7.77067 11.8332 9.7938 10.5875 12.0304L10.5814 12.0251Z" fill="#454040"/>
<path d="M18.9674 24.899C17.7818 24.899 16.2759 24.1815 14.7079 22.8331C12.7012 21.0072 11.0031 18.8688 9.67926 16.5007C8.30615 14.2033 7.30947 11.701 6.72701 9.08861C6.4744 7.93928 6.4276 6.75427 6.58876 5.58861C6.62602 5.15619 6.75769 4.73721 6.97449 4.36121C7.19129 3.98522 7.48793 3.66136 7.84351 3.41248C9.14463 2.65911 11.3523 3.43348 13.6054 5.43373C15.4784 7.20314 17.069 9.24935 18.3216 11.501C19.6939 13.7448 20.701 16.1923 21.3054 18.7521C21.5689 19.9436 21.6095 21.1736 21.4253 22.3799C21.3814 22.8247 21.2419 23.2548 21.0163 23.6407C20.7906 24.0266 20.4842 24.3591 20.118 24.6155C19.7664 24.8104 19.3693 24.9082 18.9674 24.899ZM10.5849 15.974C11.8549 18.2371 13.477 20.2837 15.3904 22.0369C17.3583 23.73 18.9193 24.094 19.5904 23.6994C20.2904 23.2925 20.8066 21.6317 20.2746 18.9446C19.6918 16.5007 18.7258 14.1644 17.4125 12.0225C16.2171 9.86746 14.6989 7.90811 12.9106 6.21248C10.7896 4.32948 9.06938 3.90861 8.36851 4.31461C8.15006 4.49213 7.97079 4.71301 7.84203 4.96332C7.71326 5.21362 7.63779 5.48791 7.62038 5.76886C7.48126 6.80843 7.52658 7.8644 7.75426 8.88823C8.31452 11.3865 9.27041 13.7791 10.5858 15.9757L10.5849 15.974Z" fill="#454040"/>
</svg>
