<svg width="47" height="54" viewBox="0 0 47 54" fill="none" xmlns="http://www.w3.org/2000/svg">
<path d="M0.00510965 1.78761L3.49422 46.624C3.5466 47.2973 4.00031 47.8714 4.64124 48.0755L23.001 53.9225C23.3257 54.0258 23.6743 54.0258 23.999 53.9225L42.3587 48.0755C42.9997 47.8714 43.4534 47.2973 43.5058 46.624L46.9949 1.78761C47.0699 0.823656 46.3115 0 45.3489 0H1.65116C0.688642 0 -0.0698065 0.823656 0.00510965 1.78761ZM38.0473 15.6988H15.3081L15.9943 22.0554H37.5527L36.1424 40.1769L23.5001 44.203L10.8577 40.1769L10.1209 30.7095H16.7566V35.3534L23.6774 37.2191L30.5568 35.3534L31.0905 27.9523H9.9063L8.49986 9.87828H38.5001L38.0473 15.6988Z" fill="#6464FA"/>
</svg>
