<svg width="54" height="82" viewBox="0 0 54 82" fill="none" xmlns="http://www.w3.org/2000/svg">
<path d="M54 41C54 48.5434 47.9561 54.6613 40.504 54.6613C33.0519 54.6613 27.0079 48.5434 27.0079 41C27.0079 33.4566 33.0519 27.3387 40.504 27.3387C47.9561 27.3387 54 33.4566 54 41ZM40.504 27.3387C47.9561 27.3387 54 21.2207 54 13.6773C54 6.13398 47.9561 0 40.504 0H13.496C6.04395 0 0 6.11797 0 13.6613C0 21.2047 6.04395 27.3227 13.496 27.3227C6.04395 27.3387 0 33.4566 0 41C0 48.5434 6.04395 54.6613 13.496 54.6613C6.04395 54.6613 0 60.7793 0 68.3387C0 75.898 6.04395 82 13.496 82C20.9481 82 26.9921 75.882 26.9921 68.3387V27.3387H40.504Z" fill="#6464FA"/>
</svg>
